<svg xmlns="http://www.w3.org/2000/svg" width="71" height="78" viewBox="0 0 71 78">
    <g fill="none" fill-rule="evenodd">
        <path d="M-15-11H85V89H-15z"/>
        <g stroke-linecap="round" stroke-linejoin="round" stroke-width="1.5">
            <path stroke="#000" d="M63.974 49.168c3.886-11.09 5.678-22.217 5.376-33.382-5.534 0-11.41-1.75-17.627-5.253C45.505 7.031 40.022 4.02 35.273 1.5a502.104 502.104 0 0 1-16.372 9.033C13.382 13.445 7.415 15.196 1 15.786 1 26.38 3.043 37.508 7.128 49.168 13.255 66.66 29.332 76.5 35.518 76.5c6.188 0 22.626-10.696 28.456-27.332z"/>
            <path stroke="#000" d="M55.248 46.178c2.735-7.829 3.997-15.683 3.784-23.564-3.895 0-8.03-1.236-12.406-3.708a534.571 534.571 0 0 0-11.577-6.377 353.077 353.077 0 0 1-11.524 6.377c-3.884 2.055-8.083 3.291-12.599 3.708 0 7.478 1.438 15.333 4.313 23.564C19.552 58.524 30.867 65.47 35.221 65.47c4.355 0 15.924-7.55 20.027-19.293z"/>
            <path stroke="#19BB4F" d="M26.368 41.752l6.01 6.072 11.637-16.545"/>
        </g>
    </g>
</svg>
