<svg xmlns="http://www.w3.org/2000/svg" width="75" height="75" viewBox="0 0 75 75">
    <g fill="none" fill-rule="evenodd">
        <path d="M-13-13H87V87H-13z"/>
        <g>
            <rect width="73.5" height="73.5" x=".75" y=".75" stroke="#000" stroke-width="1.5" rx="6"/>
            <path stroke="#000" stroke-linecap="round" stroke-linejoin="round" stroke-width="1.5" d="M1.875 11.25h71.25"/>
            <circle cx="6.25" cy="6.25" r="1" fill="#19BB4F" stroke="#19BB4F"/>
            <circle cx="16.25" cy="6.25" r="1" fill="#19BB4F" stroke="#19BB4F"/>
            <circle cx="11.25" cy="6.25" r="1" fill="#19BB4F" stroke="#19BB4F"/>
            <g stroke="#19BB4F" stroke-width="1.5" transform="translate(12.89 31.64)">
                <path d="M20.42 16.593c-3.01 3.95-6.505 5.764-10.488 5.442C3.958 21.552.137 16.597.137 11.496c0-5.1 3.5-11.183 10.782-11.003 4.855.12 8.126 2.252 9.814 6.399h26.82l2.172 4.388-5.374 5.313-2.167-3.048-3.275 3.048-2.155-3.048-3.187 3.048-2.26-3.048-3.145 3.048H20.42z"/>
                <circle cx="8.747" cy="11.203" r="4.312"/>
            </g>
        </g>
    </g>
</svg>
