<svg xmlns="http://www.w3.org/2000/svg" width="90" height="76" viewBox="0 0 90 76">
    <g fill="none" fill-rule="evenodd">
        <path d="M-5-13H95V87H-5z"/>
        <g stroke-width="1.5">
            <circle cx="44.792" cy="55.208" r="1.042" fill="#000" stroke="#000"/>
            <rect width="88.083" height="61" x=".75" y=".75" stroke="#000" rx="5"/>
            <path stroke="#000" stroke-linecap="round" stroke-linejoin="round" d="M1.042 49.48h87.567M38.02 62.5v12.065M52.604 62.5v12.065M32.327 74.48H58.37"/>
            <g stroke="#19BB4F">
                <path d="M37.941 22.083c-3.866 3.748-6.11 6.01-6.735 6.785-.936 1.163-4.08 5.626 0 9.798 3.47 3.549 7.857 2.812 12.63-2.749 2.439-2.84 5.122-4.92 5.122-8.212 0-2.195-.867-4.069-2.601-5.622"/>
                <path d="M52.684 27.292c3.866-3.748 6.11-6.01 6.735-6.785.936-1.163 4.08-5.626 0-9.798-3.47-3.549-7.857-2.812-12.63 2.749-2.439 2.84-5.122 4.92-5.122 8.212 0 2.195.867 4.069 2.601 5.622"/>
            </g>
        </g>
    </g>
</svg>
