<svg xmlns="http://www.w3.org/2000/svg" xmlns:xlink="http://www.w3.org/1999/xlink" width="1366" height="117" viewBox="0 0 1366 117">
    <defs>
        <path id="b" d="M0 0h1366v110H0z"/>
        <filter id="a" width="101.4%" height="117.3%" x="-.7%" y="-7.7%" filterUnits="objectBoundingBox">
            <feOffset dy="1" in="SourceAlpha" result="shadowOffsetOuter1"/>
            <feGaussianBlur in="shadowOffsetOuter1" result="shadowBlurOuter1" stdDeviation="3"/>
            <feColorMatrix in="shadowBlurOuter1" values="0 0 0 0 0 0 0 0 0 0 0 0 0 0 0 0 0 0 0.1 0"/>
        </filter>
        <path id="c" d="M3.783 12.823l13-7.915-5.068 14-1.432-6.085z"/>
        <path id="e" d="M12.243 7.243h-5v-1h6v6h-1z"/>
        <path id="g" d="M35.167 15.667c-.5-.556-.89-1.278-1.056-2.223-.278-.833-.389-1.833-.389-2.888 0-1.112.111-2.167.39-3.056.277-.889.666-1.667 1.221-2.278a5.719 5.719 0 0 1 2.111-1.444c.89-.334 1.89-.5 3.112-.5.277 0 .61.055.944.055.389.056.722.056 1.111.111.389.056.722.112 1.056.223.333.11.61.222.889.333v2.722h-.89c-.166-.833-.5-1.5-1.055-1.889a3.415 3.415 0 0 0-2-.61c-.833 0-1.5.221-2 .555-.5.389-.833.833-1.111 1.389-.278.555-.444 1.166-.5 1.889-.056.722-.111 1.444-.111 2.11 0 .89.055 1.667.167 2.445.11.722.333 1.389.61 1.945.334.5.723.944 1.278 1.277.5.334 1.223.5 2.056.5.444 0 .833 0 1.167-.055.333 0 .61-.111.889-.167.277-.111.5-.167.722-.278l.666-.333.39.833c-.223.111-.5.223-.778.39-.334.11-.667.277-1.056.388a4.305 4.305 0 0 1-1.278.333c-.444.056-1 .112-1.555.112-1.167 0-2.111-.167-2.945-.5-.833-.334-1.5-.778-2.055-1.39zM89.5 17.11c-.722.111-1.444.111-2.278.111h-5.166v-.444c.055 0 .11 0 .277-.056.167 0 .278-.11.334-.166.11-.056.166-.167.166-.334.056-.11.056-.333.056-.555V5.056c0-.223-.056-.39-.056-.556-.055-.167-.11-.278-.166-.333-.056-.056-.167-.111-.334-.167-.166 0-.222-.056-.277-.056V3.5h10.222v3.056h-.722c-.112-.5-.278-.89-.39-1.167a1.517 1.517 0 0 0-.5-.667c-.166-.166-.444-.222-.777-.278-.333-.055-.778-.055-1.278-.055h-1.667c-.444 0-.722 0-.888.111-.167.111-.223.333-.223.667v3.277H87c1.111 0 2.056.056 2.833.223.778.166 1.39.389 1.89.722.5.389.833.778 1.055 1.333.222.556.333 1.167.333 1.945 0 1.055-.167 1.889-.5 2.5-.278.61-.722 1.055-1.278 1.389-.5.277-1.166.5-1.833.555zm-3.389-1c.111.111.278.167.445.222.166.056.444.056.777.111.334 0 .667-.055 1-.11.278-.112.556-.278.834-.5.277-.278.444-.612.61-1.112.167-.5.223-1.11.223-1.944 0-1.222-.222-2.111-.667-2.667-.444-.555-1.222-.833-2.277-.833h-1.167v5.778c0 .277.055.5.055.666 0 .167.056.278.167.39zm-11.222.667v.389h-4.5v-.445c.055 0 .111 0 .278-.055.166 0 .277-.111.333-.167.111-.056.167-.167.167-.333.055-.111.055-.334.055-.556V5.056c0-.223-.055-.39-.055-.556-.056-.167-.111-.278-.167-.333-.056-.056-.167-.111-.333-.167-.167 0-.223-.056-.278-.056V3.5H75.833c.667 0 1.278.056 1.89.111.61.056 1.166.222 1.61.5.445.278.834.722 1.111 1.222.223.5.39 1.223.39 2.111 0 .945-.167 1.723-.445 2.278-.278.611-.667 1-1.167 1.334-.5.277-1.055.5-1.722.61a12.32 12.32 0 0 1-2.056.167h-1.388v3.834c0 .222.055.389.055.555.056.167.111.278.167.334.055.055.166.11.333.166.167 0 .222.056.278.056zM74.11 5.056v5.888H75.5c.833 0 1.444-.333 1.778-.944.333-.611.5-1.5.5-2.667 0-.555-.056-1.055-.167-1.444-.167-.389-.333-.722-.555-.945-.278-.222-.5-.388-.834-.5-.333-.055-.666-.11-1-.11-.278 0-.444.055-.61.055-.168 0-.279.055-.334.111-.056.056-.111.111-.111.222-.056.111-.056.222-.056.334zm-5.555 9v3.11h-9.89v-.444c.056 0 .112 0 .278-.055.167 0 .278-.111.334-.167.11-.056.166-.167.166-.333.056-.111.056-.334.056-.556V5.056c0-.223-.056-.39-.056-.556-.055-.167-.11-.278-.166-.333-.056-.056-.167-.111-.334-.167-.166 0-.222-.056-.277-.056V3.5h9.555v2.944H67.5c-.111-.5-.278-.888-.389-1.166a1.517 1.517 0 0 0-.5-.667c-.167-.167-.444-.222-.778-.278-.333-.055-.777-.055-1.277-.055h-1.5c-.278 0-.445 0-.556.11-.056.112-.111.334-.111.612v4.556H64.778c.222 0 .444 0 .666-.056.223 0 .445-.056.667-.111.222-.056.389-.111.556-.222v1.777c-.167-.11-.334-.166-.556-.222-.222-.055-.444-.11-.667-.11-.222 0-.444-.056-.666-.056H62.389v4.333c0 .333 0 .555.055.778 0 .166.112.333.278.444.167.111.39.167.722.222.278.056.723.056 1.278.056.611 0 1.056 0 1.39-.056.332 0 .61-.11.777-.277.222-.167.333-.39.444-.723.111-.333.223-.722.334-1.277h.889zM53.444 17.11c-.722.111-1.388.111-2.222.111h-5.166v-.5c.055 0 .11 0 .277-.055.167 0 .278-.111.334-.167.11-.056.166-.167.166-.333.056-.167.056-.334.056-.556v-.722-9.833c0-.223-.056-.39-.056-.556-.055-.167-.11-.278-.166-.333-.056-.056-.167-.111-.334-.167-.166 0-.222-.056-.277-.056V3.5h10.222v3.056h-.722c-.112-.5-.278-.89-.39-1.167a1.517 1.517 0 0 0-.5-.667c-.166-.166-.444-.222-.777-.278-.333-.055-.778-.055-1.278-.055h-1.667c-.444 0-.722 0-.888.111-.167.111-.223.333-.223.667v3.277H51c1.111 0 2.056.056 2.833.223.778.166 1.39.389 1.89.722.5.389.833.778 1.055 1.333.222.556.333 1.167.333 1.945 0 1.055-.167 1.889-.5 2.5a3.568 3.568 0 0 1-1.333 1.389c-.5.277-1.167.5-1.834.555zm-3.388-1c.11.111.277.167.444.222.222.056.444.056.778.111.333 0 .666-.055 1-.11.278-.112.555-.278.833-.5.278-.278.445-.612.611-1.112.167-.5.222-1.11.222-1.944 0-1.222-.222-2.111-.666-2.667-.445-.555-1.222-.833-2.278-.833h-1.167v5.778c0 .277.056.5.056.666 0 .167.055.278.167.39zm-16.445 5h100.722v1.333H33.611v-1.333zm92.667-9.055l-.834-1.167c.167-.278.39-.556.667-.945.278-.333.556-.777.889-1.222.333-.444.611-.889.944-1.389.278-.5.612-1 .89-1.444.333-.445.555-.889.777-1.278a8.31 8.31 0 0 0 .5-1h3.222c-.389.278-.777.611-1.277 1.056-.5.444-.945.944-1.445 1.5-.5.5-.944 1.055-1.389 1.61-.444.556-.833 1-1.166 1.445l-.223.278c.278.444.611.944.89 1.333.277.39.61.834.944 1.223.333.388.666.777 1.055 1.222.334.389.722.833 1.167 1.333.278.278.667.722 1.111 1.222.5.5.944 1 1.444 1.5l-4.666-.055c-.167-.334-.334-.722-.556-1.056a12.572 12.572 0 0 0-.722-1.11c-.278-.334-.5-.668-.722-1-.222-.334-.5-.668-.722-1-.278-.334-.5-.668-.778-1.056zm-.39 4.722v.389h-4.5v-.445c.056 0 .112 0 .279-.055.166 0 .277-.111.333-.167.111-.056.167-.167.167-.333.055-.111.055-.334.055-.556V5.056c0-.223-.055-.39-.055-.556-.056-.167-.111-.278-.167-.333-.056-.056-.167-.111-.333-.167-.167 0-.223-.056-.278-.056V3.5h4.5V4c-.056 0-.111 0-.278.056-.167.055-.278.11-.333.166-.111.056-.167.167-.167.334-.055.11-.055.333-.055.555v10.556c0 .222.055.389.055.555.056.167.111.278.167.334.055.055.166.11.333.166.167 0 .222.056.278.056zM96 15.556a28.29 28.29 0 0 0-.333 1.722h-2.5c.11-.222.222-.445.389-.722.166-.278.333-.667.555-1.112.167-.444.445-1.055.722-1.722.278-.666.667-1.555 1.056-2.555l2.222-5.445c.111-.222.167-.555.167-.889v-.277c-.056-.167-.111-.278-.167-.334-.055-.055-.167-.11-.333-.166-.167 0-.222-.056-.278-.056v-.444h3.944c.056.166.056.388.112.666.055.278.11.611.277 1l3.167 9c.278.834.556 1.5.778 1.945.222.444.389.833.555 1.11h-3.5c0-.277-.11-.666-.277-1.221-.112-.556-.334-1.223-.612-2l-.61-1.778h-4.39c-.444 1.389-.777 2.5-.944 3.278zm3.167-9.778l-1.945 5.555H101l-1.833-5.555zm12.444 11v.444h-4.5v-.444c.056 0 .111 0 .278-.056.167 0 .278-.11.333-.166.111-.056.167-.167.167-.334.055-.166.055-.333.055-.555V5.056c0-.223-.055-.39-.055-.556-.056-.167-.111-.278-.167-.333-.055-.056-.166-.111-.333-.167-.167 0-.222-.056-.278-.056V3.5h4.5v.444c-.055 0-.111 0-.278.056-.166.056-.277.111-.333.167-.111.055-.167.166-.167.333-.055.111-.055.333-.055.556v4.388h5.333V5.056c0-.223-.055-.39-.055-.556-.056-.167-.112-.278-.167-.333-.056-.056-.167-.111-.333-.167-.167 0-.223-.056-.278-.056V3.5h4.389v.389c-.056 0-.111 0-.278.055-.167.056-.278.112-.333.167-.112.056-.167.167-.167.333-.056.112-.056.334-.056.556v10.611c0 .222.056.389.056.556.055.166.111.277.167.333.055.056.166.111.333.167.167 0 .222.055.278.055v.445h-4.5v-.445c.055 0 .11 0 .277-.055.167 0 .278-.111.334-.167.11-.056.166-.167.166-.333.056-.111.056-.334.056-.556V10.39h-5.333v5.278c0 .222.055.389.055.555.056.167.111.278.167.334.055.055.167.11.333.166.167 0 .222.056.278.056h.111zM24.444 4.944L8.278 14.278l-7.834-4.5c.056-.5.167-.945.334-1.445l7.444 4.278 15.39-8.833.832 1.166zm-16.222 11l16.945-9.722c.944 1.778 1.444 3.834 1.444 6 0 7.334-5.944 13.222-13.222 13.222C6.056 25.444.167 19.5.167 12.222c0-.278 0-.61.055-.889l8 4.611zM22.556 2.667l-14.39 8.277-6.944-4c.222-.444.445-.888.667-1.277l6.333 3.61 13.167-7.61c.389.333.778.61 1.167 1zm-2.5-1.89L8.166 7.612l-5.5-3.167c.334-.388.612-.777.945-1.11l4.611 2.61L18.5 0c.556.222 1.056.5 1.556.778zM90 32.5l1.056-5.444h1.722c1 0 1.444.5 1.444 1.277 0 .723-.444 1.111-1.278 1.39.556.221.89.61.89 1.166 0 1-.667 1.555-2 1.555H90v.056zm.667-.5h1.277c.834 0 1.334-.444 1.334-1.111 0-.5-.445-1-1.278-1h-1L90.667 32zm.5-2.556h1.11c.945 0 1.445-.444 1.445-1.11 0-.556-.333-.834-1-.834h-1.11l-.445 1.944zM97.61 31.5c-.333.611-.722 1.056-1.5 1.056-.889 0-1.5-.723-1.5-1.723 0-1.222.778-2.277 1.833-2.277.778 0 1.167.444 1.39 1.11l-.5.112c-.167-.5-.445-.778-.89-.778-.722 0-1.333.778-1.333 1.889 0 .778.389 1.167 1.056 1.167.61 0 .833-.334 1.055-.723l.39.167zm1.167-.889v.278c0 .778.389 1.222 1 1.222.555 0 .889-.389 1.222-.889l.444.222c-.444.667-.888 1.112-1.722 1.112-.889 0-1.444-.667-1.444-1.667 0-1.333.778-2.333 1.889-2.333.889 0 1.389.555 1.389 1.555 0 .167-.056.333-.056.5h-2.722zm2.278-.444c.055-.111 0-.167 0-.223 0-.444-.278-.888-.89-.888-.722 0-1.055.444-1.277 1.166h2.167v-.055zm1.777-1.5H105l-.056.444h-1.666l-.667 3.389h-.5l.722-3.833zm1.723 3.389l1.61-3.39h.778l.445 3.39h.389l-.222 1.166h-.39l.056-.722h-2.61l-.223.722H104l.222-1.166h.334zm2.277 0l-.277-2.89h-.112l-1.333 2.89h1.722zm4.111-1.834c0-.166.056-.333.056-.444 0-.445-.333-.722-.833-.722-.334 0-.611.166-.834.444l-.333-.333c.333-.278.722-.556 1.278-.556.778 0 1.278.5 1.278 1.111 0 .111-.056.334-.056.611l-.278 1.278c-.11.445-.11.722-.11.945h-.5c-.056-.112-.056-.278-.056-.445-.334.278-.667.5-1.112.5-.61 0-1.11-.5-1.11-1.111 0-.778.722-1.278 2.055-1.278h.555zm-.11.39h-.39c-1.055 0-1.61.277-1.61.832 0 .39.277.667.666.667s.722-.222 1.111-.5l.222-1zm4.722-1.5c.333-.334.666-.556 1.11-.556.834 0 1.278.555 1.278 1.61 0 1.39-.833 2.39-1.833 2.39-.5 0-.833-.223-1.111-.5L114.611 34h-.5l1.056-5.389h.444l-.055.5zm-.445 2.444c.222.333.5.555 1 .555.722 0 1.389-.833 1.389-2 0-.722-.333-1.111-.889-1.111-.389 0-.778.167-1.055.667l-.445 1.889zm5-.834L118.89 32.5h-.556l1.278-1.778c-.5-.166-.778-.555-.778-1 0-.5.445-1.055 1.334-1.055H122l-.778 3.833h-.5l.334-1.778h-.945zm1.222-1.666h-1.222c-.555 0-.833.333-.833.61 0 .39.222.556.666.556h1.112l.277-1.166zm1.167 3l1.611-3.39h.778l.444 3.39h.39l-.223 1.166h-.389l.056-.722h-2.611l-.223.722h-.389l.223-1.166h.333zm2.222 0l-.278-2.89h-.11L123 32.057h1.722zm1.445-1.167c0-1.333.833-2.333 1.833-2.333.833 0 1.333.666 1.333 1.666 0 1.278-.833 2.334-1.833 2.334-.778 0-1.333-.612-1.333-1.667zm.5.111c0 .722.389 1.111.889 1.111.666 0 1.333-.833 1.333-1.944 0-.723-.389-1.167-.889-1.167-.667 0-1.333.833-1.333 2zm7.11-1.889l-1.666 3.389h-.5l-.5-3.389-.667 3.389h-.5l.778-3.833h.834L132 32l1.611-3.333h.833l-.777 3.833h-.5l.61-3.389z"/>
    </defs>
    <g fill="none" fill-rule="evenodd">
        <use fill="#000" filter="url(#a)" xlink:href="#b"/>
        <use fill="#FFF" xlink:href="#b"/>
        <g stroke="#313131" stroke-width="2" transform="translate(1191 74)">
            <circle cx="8" cy="8" r="8"/>
            <path d="M13.6 13.6l4.8 4.8"/>
        </g>
        <g fill="#19BB4F">
            <path d="M1256 92V74h-14v-2h16v22h-16v-2z"/>
            <text font-family="OpenSans-SemiBold, Open Sans" font-size="12" font-weight="500" transform="translate(1240 70)">
                <tspan x="24" y="13">Сбербанк </tspan> <tspan x="24" y="26">Онлайн</tspan>
            </text>
            <path fill-rule="nonzero" d="M1248.573 84H1240v-2h8.619l-2.282-2.295 1.418-1.41 4.655 4.682-4.7 4.728-1.42-1.41z"/>
        </g>
        <path fill="#000" d="M40 108h62v2H40z"/>
        <text fill="#262626" font-family="OpenSans-SemiBold, Open Sans" font-size="12" font-weight="500" letter-spacing=".6" transform="translate(40 76)">
            <tspan x="0" y="13">КРЕДИТ</tspan> <tspan x="50.358" y="13" letter-spacing=".554">Ы</tspan>
        </text>
        <text fill="#262626" font-family="OpenSans-SemiBold, Open Sans" font-size="12" font-weight="500" letter-spacing=".6" transform="translate(40 76)">
            <tspan x="159" y="13">КАРТ</tspan> <tspan x="191.213" y="13" letter-spacing=".554">Ы</tspan>
        </text>
        <text fill="#262626" font-family="OpenSans-SemiBold, Open Sans" font-size="12" font-weight="500" letter-spacing=".6" transform="translate(40 76)">
            <tspan x="221" y="13">ВКЛАД</tspan> <tspan x="264.928" y="13" letter-spacing=".554">Ы</tspan>
        </text>
        <text fill="#262626" font-family="OpenSans-SemiBold, Open Sans" font-size="12" font-weight="500" letter-spacing=".6" transform="translate(40 76)">
            <tspan x="295" y="13">ПЛАТЕЖ</tspan> <tspan x="347.432" y="13" letter-spacing=".554">И И ПЕРЕВОДЫ</tspan>
        </text>
        <text fill="#262626" font-family="OpenSans-SemiBold, Open Sans" font-size="12" font-weight="500" letter-spacing=".6" transform="translate(40 76)">
            <tspan x="576" y="13">ИНВЕСТИЦИ</tspan> <tspan x="657.045" y="13" letter-spacing=".554">И</tspan>
        </text>
        <text fill="#262626" font-family="OpenSans-SemiBold, Open Sans" font-size="12" font-weight="500" letter-spacing=".6" transform="translate(40 76)">
            <tspan x="686" y="13">ПОДДЕРЖКА</tspan>
        </text>
        <text fill="#262626" font-family="OpenSans-SemiBold, Open Sans" font-size="12" font-weight="500" letter-spacing=".6" transform="translate(40 76)">
            <tspan x="464" y="13">СТРАХОВАНИ</tspan> <tspan x="550.156" y="13" letter-spacing=".554">Е</tspan>
        </text>
        <text fill="#262626" font-family="OpenSans-SemiBold, Open Sans" font-size="12" font-weight="500" letter-spacing=".6" transform="translate(40 76)">
            <tspan x="80" y="13">ИПОТЕК</tspan> <tspan x="132.227" y="13" letter-spacing=".554">А</tspan>
        </text>
        <path fill="#DBDBDB" d="M0 55h1366v1H0z"/>
        <text fill="#262626" font-family="OpenSans-Regular, Open Sans" font-size="12">
            <tspan x="1177" y="33">Московская обл…</tspan>
        </text>
        <g opacity=".7" transform="translate(1157 18)">
            <mask id="d" fill="#fff">
                <use xlink:href="#c"/>
            </mask>
            <use fill="#404040" transform="scale(-1 1) rotate(-77 0 24.835)" xlink:href="#c"/>
            <g fill="#262626" mask="url(#d)">
                <path d="M0 0h20v20H0z"/>
            </g>
        </g>
        <text fill="#262626" font-family="OpenSans-Regular, Open Sans" font-size="12">
            <tspan x="993" y="33">Отделения и банкоматы</tspan>
        </text>
        <text fill="#262626" font-family="OpenSans-Regular, Open Sans" font-size="12">
            <tspan x="1301" y="33">ENG</tspan>
        </text>
        <g>
            <g transform="translate(542 20)">
                <mask id="f" fill="#fff">
                    <use xlink:href="#e"/>
                </mask>
                <use fill="#D8D8D8" fill-rule="nonzero" transform="rotate(135 10.243 9.243)" xlink:href="#e"/>
                <g fill="#262626" mask="url(#f)">
                    <path d="M0 0h20v20H0z"/>
                </g>
            </g>
            <text fill="#262626" font-family="OpenSans-Regular, Open Sans" font-size="12" transform="translate(205 20)">
                <tspan x="316" y="14">Ещё</tspan>
            </text>
            <text fill="#262626" font-family="OpenSans-Regular, Open Sans" font-size="12" transform="translate(205 20)">
                <tspan x="251" y="14">О банке</tspan>
            </text>
            <text fill="#262626" font-family="OpenSans-Regular, Open Sans" font-size="12" transform="translate(205 20)">
                <tspan x="136" y="14">Малому бизнесу</tspan>
            </text>
            <text fill="#262626" font-family="OpenSans-SemiBold, Open Sans" font-size="12" font-weight="500" transform="translate(205 20)">
                <tspan x="0" y="14">Частным клиентам</tspan>
            </text>
        </g>
        <g transform="translate(40 15)">
            <mask id="h" fill="#fff">
                <use xlink:href="#g"/>
            </mask>
            <g fill="#1A9F29" mask="url(#h)">
                <path d="M0 0h135v34H0z"/>
            </g>
        </g>
    </g>
</svg>
