<svg xmlns="http://www.w3.org/2000/svg" width="17" height="21" viewBox="0 0 17 21">
    <path fill="#FFF" fill-rule="nonzero" d="M3.214 0l1.408 4.622v3.001h1.169v-3.16L7.17 0H5.978l-.744 3.055H5.18L4.41 0H3.214zm5.472 1.86c-.475 0-.86.139-1.142.398-.282.255-.425.6-.425 1.036v2.921c0 .479.15.86.425 1.143.275.282.63.425 1.089.425.475 0 .843-.153 1.115-.425.27-.276.399-.635.399-1.116V3.32c0-.428-.123-.79-.399-1.062-.275-.273-.627-.399-1.062-.399zm2.364.132V6.72c0 .339.063.578.186.744.123.166.315.239.558.239.196 0 .378-.04.584-.16.21-.119.418-.302.61-.53v.61h1.037v-5.63h-1.036v4.276c-.096.122-.2.239-.319.318a.525.525 0 0 1-.292.107c-.096 0-.17-.02-.212-.08a.487.487 0 0 1-.08-.292v-4.33H11.05zm-2.417.85c.14 0 .262.03.345.106.086.077.106.17.106.293v3.08c0 .153-.023.263-.106.346a.47.47 0 0 1-.345.133.412.412 0 0 1-.319-.133c-.076-.086-.106-.193-.106-.345V3.24c0-.123.026-.216.106-.293.08-.076.19-.106.319-.106zM8.5 8.952c-2.019-.004-3.988.023-5.923.106-1.352 0-2.47 1.105-2.47 2.443-.08 1.06-.11 2.125-.107 3.188a38.71 38.71 0 0 0 .107 3.16c0 1.342 1.115 2.444 2.47 2.444 1.935.08 3.904.11 5.923.106 2.022.004 3.99-.026 5.923-.106 1.355 0 2.47-1.102 2.47-2.444.08-1.062.11-2.101.107-3.16a39.261 39.261 0 0 0-.107-3.188c0-1.338-1.115-2.443-2.47-2.443-1.932-.08-3.901-.11-5.923-.107zm-7.172 1.752h3.56c.063 0 .106.044.106.107V11.9a.101.101 0 0 1-.106.106h-1.09v6.322a.101.101 0 0 1-.106.106H2.524c-.063 0-.133-.043-.133-.106v-6.322H1.328c-.063 0-.132-.043-.132-.106v-1.09c0-.062.07-.106.132-.106zm7.49 0h1.037c.063 0 .132.044.132.107v2.125c.087-.08.173-.133.266-.186.176-.097.352-.16.531-.16.366 0 .628.13.824.399.186.259.292.64.292 1.115v3.081c0 .422-.086.754-.266.983-.186.24-.455.345-.797.345-.215 0-.408-.043-.584-.132-.093-.05-.18-.11-.266-.186v.133c0 .063-.07.106-.132.106H8.819a.101.101 0 0 1-.107-.106V10.81c0-.063.044-.107.107-.107zm5.313 1.807c.505 0 .893.172 1.169.478.272.302.425.72.425 1.275v1.434c0 .063-.07.106-.133.106h-1.86v.93c0 .339.044.468.08.531.03.05.103.133.266.133.13 0 .22-.043.266-.106.023-.034.08-.153.08-.558v-.399c0-.063.042-.106.105-.106h1.063c.063 0 .106.043.106.106v.425c0 .598-.123 1.046-.398 1.355-.28.312-.7.478-1.249.478-.494 0-.91-.172-1.195-.505-.282-.325-.425-.766-.425-1.328v-2.496c0-.512.166-.923.478-1.249a1.641 1.641 0 0 1 1.222-.504zm-9.27.159h1.036c.063 0 .133.043.133.106v4.25c0 .14.01.193.026.213.007.01.02.053.107.053.03 0 .116-.024.239-.107.1-.066.186-.142.265-.239v-4.17c0-.063.043-.106.106-.106H7.81c.063 0 .107.043.107.106v5.552h.026c0 .063-.07.106-.133.106H6.773a.101.101 0 0 1-.106-.106v-.32a2.03 2.03 0 0 1-.425.32 1.31 1.31 0 0 1-.664.185c-.275 0-.468-.096-.61-.292-.137-.186-.213-.445-.213-.797v-4.648c0-.063.043-.106.106-.106zm5.498 1.036a.395.395 0 0 0-.239.053c-.05.023-.083.056-.133.106v3.374a.673.673 0 0 0 .16.132c.063.03.143.027.212.027.133 0 .173-.037.186-.053.033-.04.053-.133.053-.319v-2.869c0-.159-.023-.269-.08-.345a.26.26 0 0 0-.159-.106zm3.719.026c-.123 0-.216.037-.266.107-.036.05-.08.166-.08.425v.451h.691v-.451c0-.256-.066-.369-.106-.425-.046-.067-.12-.107-.24-.107z" opacity=".8"/>
</svg>
