<svg xmlns="http://www.w3.org/2000/svg" width="21" height="18" viewBox="0 0 21 18">
    <path fill="#FFF" fill-rule="nonzero" d="M18.525 2.7A4.332 4.332 0 0 0 20.42.313a8.629 8.629 0 0 1-2.738 1.045 4.31 4.31 0 0 0-7.34 3.93A12.234 12.234 0 0 1 1.461.785a4.292 4.292 0 0 0-.584 2.17c0 1.494.76 2.812 1.917 3.584a4.272 4.272 0 0 1-1.952-.538v.054A4.312 4.312 0 0 0 4.3 10.28c-.363.1-.74.151-1.135.151-.279 0-.548-.026-.811-.077a4.31 4.31 0 0 0 4.023 2.991 8.623 8.623 0 0 1-5.35 1.843A9 9 0 0 1 0 15.131a12.193 12.193 0 0 0 6.604 1.933c7.924 0 12.258-6.566 12.258-12.256 0-.189-.003-.375-.013-.56A8.618 8.618 0 0 0 21 2.02a8.654 8.654 0 0 1-2.475.68z" opacity=".8"/>
</svg>
