<svg xmlns="http://www.w3.org/2000/svg" width="18" height="18" viewBox="0 0 18 18">
    <path fill="#FFF" fill-rule="nonzero" d="M2.455 0A2.468 2.468 0 0 0 0 2.455v13.09A2.468 2.468 0 0 0 2.455 18h13.09A2.468 2.468 0 0 0 18 15.545V2.455A2.468 2.468 0 0 0 15.545 0H2.455zM13.09 2.455h2.454v2.454h-2.454V2.455zM9 5.727A3.259 3.259 0 0 1 12.273 9 3.259 3.259 0 0 1 9 12.273 3.259 3.259 0 0 1 5.727 9 3.259 3.259 0 0 1 9 5.727zM1.636 7.364h2.736A4.876 4.876 0 0 0 4.091 9c0 2.7 2.208 4.91 4.909 4.91 2.7 0 4.91-2.21 4.91-4.91 0-.572-.1-1.125-.282-1.636h2.736v8.181a.804.804 0 0 1-.819.819H2.455a.804.804 0 0 1-.819-.819V7.364z" opacity=".8"/>
</svg>
