<svg xmlns="http://www.w3.org/2000/svg" width="11" height="18" viewBox="0 0 11 18">
    <path fill="#FFF" fill-rule="nonzero" d="M5.5 0a4.398 4.398 0 0 1 4.399 4.399A4.398 4.398 0 0 1 5.5 8.798a4.398 4.398 0 0 1-4.399-4.4A4.398 4.398 0 0 1 5.5 0zm0 2.2a2.2 2.2 0 1 0 0 4.398 2.2 2.2 0 0 0 0-4.399zm4.399 7.417c.346 0 .687.165.902.473a1.097 1.097 0 0 1-.275 1.529 8.711 8.711 0 0 1-2.69 1.259l2.838 2.842a1.086 1.086 0 0 1 0 1.551 1.096 1.096 0 0 1-.775.324c-.28 0-.561-.11-.776-.324L5.5 13.653 1.877 17.27a1.096 1.096 0 0 1-.776.324c-.28 0-.56-.11-.775-.324a1.086 1.086 0 0 1 0-1.55l2.837-2.843A8.728 8.728 0 0 1 .48 11.624a1.101 1.101 0 0 1 .633-2.002c.214 0 .435.066.627.198A6.554 6.554 0 0 0 5.5 10.997a6.552 6.552 0 0 0 3.772-1.182c.187-.132.407-.198.627-.198z" opacity=".8"/>
</svg>
