<svg xmlns="http://www.w3.org/2000/svg" width="22" height="13" viewBox="0 0 22 13">
    <path fill="#FFF" fill-rule="nonzero" d="M20.993 12.526l-2.934.037s-.633.123-1.461-.448c-1.1-.755-2.137-2.72-2.947-2.462-.817.264-.792 2.026-.792 2.026s.006.313-.178.516c-.203.22-.602.196-.602.196h-1.313s-2.904.24-5.458-2.425C2.521 7.063.06 1.323.06 1.323S-.08.96.072.776C.243.574.716.568.716.568L3.86.555s.295.05.51.203c.172.129.27.374.27.374s.51 1.283 1.185 2.45C7.137 5.859 7.75 6.357 8.194 6.11c.65-.356.454-3.21.454-3.21s.012-1.038-.326-1.499c-.264-.362-.76-.466-.976-.497-.178-.024.11-.436.485-.62C8.396.01 9.397-.01 10.575.003c.921.012 1.185.067 1.547.153 1.08.264.719 1.277.719 3.702 0 .78-.142 1.872.417 2.235.24.16.829.024 2.302-2.48.7-1.192 1.222-2.585 1.222-2.585s.116-.246.294-.356c.178-.11.424-.074.424-.074L20.809.58s.994-.123 1.154.331c.172.473-.368 1.572-1.719 3.377-2.222 2.959-2.468 2.682-.626 4.395 1.762 1.64 2.13 2.437 2.185 2.536.731 1.209-.81 1.307-.81 1.307z" opacity=".8"/>
</svg>
